<svg xmlns="http://www.w3.org/2000/svg" version="1.1" xmlns:xlink="http://www.w3.org/1999/xlink" xmlns:svgjs="http://svgjs.dev/svgjs" width="1000" height="623" viewBox="0 0 1000 623"><g transform="matrix(1,0,0,1,-0.6060606060606233,0.2522267206477409)"><svg viewBox="0 0 396 247" data-background-color="#ffffff" preserveAspectRatio="xMidYMid meet" height="623" width="1000" xmlns="http://www.w3.org/2000/svg" xmlns:xlink="http://www.w3.org/1999/xlink"><g id="tight-bounds" transform="matrix(1,0,0,1,0.2400000000000091,-0.09999999999999432)"><svg viewBox="0 0 395.52 247.2" height="247.2" width="395.52"><g><svg></svg></g><g><svg viewBox="0 0 395.52 247.2" height="247.2" width="395.52"><g transform="matrix(1,0,0,1,75.54432,84.92447166597768)"><svg viewBox="0 0 244.43135999999998 77.35105666804463" height="77.35105666804463" width="244.43135999999998"><g><svg viewBox="0 0 244.43135999999998 77.35105666804463" height="77.35105666804463" width="244.43135999999998"><g><svg viewBox="0 0 244.43135999999998 77.35105666804463" height="77.35105666804463" width="244.43135999999998"><g><svg viewBox="0 0 244.43135999999998 77.35105666804463" height="77.35105666804463" width="244.43135999999998"><g id="textblocktransform"><svg viewBox="0 0 244.43135999999998 77.35105666804463" height="77.35105666804463" width="244.43135999999998" id="textblock"><g><svg viewBox="0 0 244.43135999999998 77.35105666804463" height="77.35105666804463" width="244.43135999999998"><g transform="matrix(1,0,0,1,0,0)"><svg width="244.43135999999998" viewBox="2.0799999237060547 -36.88999938964844 118.0999984741211 37.380001068115234" height="77.35105666804463" data-palette-color="#ffffff"><path d="M2.08-31.03L2.08-34.69 29.42-34.69 29.42-31.03 17.82-31.03 17.82 0 13.67 0 13.67-31.03 2.08-31.03ZM41.92-24.58L41.92-24.58Q44.6-24.58 46.47-23.96 48.34-23.34 49.35-22.14 50.36-20.95 50.8-19.48 51.24-18.02 51.24-16.11L51.24-16.11 51.24 0 48.41 0 47.48-2.2Q44.53 0.49 40.7 0.49L40.7 0.49Q37.28 0.49 34.91-1.57 32.54-3.64 32.54-6.4L32.54-6.4Q32.54-7.86 33.08-9.03 33.62-10.21 34.63-10.99 35.64-11.77 36.94-12.32 38.23-12.87 39.95-13.16 41.67-13.45 43.41-13.57 45.14-13.7 47.21-13.7L47.21-13.7 47.21-15.6Q47.21-16.43 47.15-17.04 47.09-17.65 46.75-18.51 46.41-19.36 45.82-19.91 45.24-20.46 44.06-20.86 42.89-21.26 41.28-21.26L41.28-21.26Q38.79-21.26 34.84-20.17L34.84-20.17 34.08-23.1Q38.08-24.58 41.92-24.58ZM47.21-5.13L47.21-10.67 45.73-10.67Q44.33-10.67 43.31-10.62 42.28-10.57 40.9-10.34 39.52-10.11 38.64-9.69 37.77-9.28 37.14-8.48 36.52-7.69 36.52-6.59L36.52-6.59Q36.52-5.05 38.07-3.86 39.62-2.66 41.77-2.66L41.77-2.66Q44.92-2.66 47.21-5.13L47.21-5.13ZM60.52 0L60.52-36.89 64.52-36.89 64.52 0 60.52 0ZM84.49-21L84.49-21Q81.63-21 78.04-19.12L78.04-19.12 78.04 0 74.04 0 74.04-36.89 78.04-36.89 78.04-22.29Q82.32-24.56 86.05-24.56L86.05-24.56Q87.66-24.56 88.95-24.15 90.23-23.73 91.06-23.11 91.89-22.49 92.49-21.5 93.08-20.51 93.39-19.64 93.69-18.77 93.85-17.58 94.01-16.38 94.05-15.63 94.08-14.87 94.08-13.84L94.08-13.84 94.08 0 89.98 0 89.98-14.58Q89.98-21 84.49-21ZM110.85-24.58L110.85-24.58Q113.54-24.58 115.41-23.96 117.28-23.34 118.29-22.14 119.3-20.95 119.74-19.48 120.18-18.02 120.18-16.11L120.18-16.11 120.18 0 117.35 0 116.42-2.2Q113.47 0.49 109.63 0.49L109.63 0.49Q106.22 0.49 103.85-1.57 101.48-3.64 101.48-6.4L101.48-6.4Q101.48-7.86 102.02-9.03 102.55-10.21 103.57-10.99 104.58-11.77 105.87-12.32 107.17-12.87 108.89-13.16 110.61-13.45 112.34-13.57 114.08-13.7 116.15-13.7L116.15-13.7 116.15-15.6Q116.15-16.43 116.09-17.04 116.03-17.65 115.69-18.51 115.35-19.36 114.76-19.91 114.17-20.46 113-20.86 111.83-21.26 110.22-21.26L110.22-21.26Q107.73-21.26 103.77-20.17L103.77-20.17 103.02-23.1Q107.02-24.58 110.85-24.58ZM116.15-5.13L116.15-10.67 114.66-10.67Q113.27-10.67 112.25-10.62 111.22-10.57 109.84-10.34 108.46-10.11 107.58-9.69 106.7-9.28 106.08-8.48 105.46-7.69 105.46-6.59L105.46-6.59Q105.46-5.05 107.01-3.86 108.56-2.66 110.71-2.66L110.71-2.66Q113.86-2.66 116.15-5.13L116.15-5.13Z" opacity="1" transform="matrix(1,0,0,1,0,0)" fill="#ffffff" class="wordmark-text-0" data-fill-palette-color="primary" id="text-0"></path></svg></g></svg></g></svg></g></svg></g></svg></g></svg></g></svg></g><g><path d="M245.816 0c68.262 0 123.6 55.338 123.6 123.6 0 68.262-55.338 123.6-123.6 123.6-51.314 0-95.324-31.27-114.016-75.794h3.794c18.48 42.549 60.876 72.306 110.222 72.306 66.336 0 120.112-53.776 120.112-120.112 0-66.336-53.776-120.112-120.112-120.112-49.346 0-91.742 29.757-110.222 72.306l-3.794 0c18.691-44.524 62.701-75.794 114.016-75.794z" fill="#ffffff" stroke="transparent" data-fill-palette-color="tertiary"></path></g></svg></g><defs></defs></svg><rect width="395.52" height="247.2" fill="none" stroke="none" visibility="hidden"></rect></g></svg></g></svg>